<?xml version="1.0" encoding="UTF-8"?>
<svg xmlns="http://www.w3.org/2000/svg" version="1.1" viewBox="0 0 16.1 20">
  <defs>
    <style>
      .cls-1 {
        fill: #ff4785;
      }

      .cls-2 {
        fill: #fff;
        fill-rule: evenodd;
      }
    </style>
  </defs>
  <!-- Generator: Adobe Illustrator 28.6.0, SVG Export Plug-In . SVG Version: 1.2.0 Build 709)  -->
  <g>
    <g id="_레이어_1" data-name="레이어_1">
      <path class="cls-1" d="M.6,18.4L0,1.9C0,1.4.4.9.9.9L15,0c.6,0,1,.4,1.1.9,0,0,0,0,0,0v18c0,.6-.5,1-1,1s0,0,0,0l-13.4-.6c-.5,0-.9-.4-1-1Z"/>
      <path class="cls-2" d="M13.9,0h-1.9c0,.1,0,2.4,0,2.4,0,0,0,0,0,0,0,0,.1,0,.2,0l.9-.7.7.6s0,0,0,0c0,0,.1,0,.1-.2V0ZM12.4,7.7c-.4.3-3,.5-3,0,0-1.5-.6-1.6-1-1.6s-.9.1-.9.9.9,1.3,1.9,1.8c1.4.8,3.2,1.7,3.2,4s-1.8,3.5-4.1,3.5-4.5-1-4.3-4.3c0-.4,3.1-.3,3.1,0,0,1.4.3,1.8,1.1,1.8s.9-.3.9-.9c0-.9-.9-1.4-1.9-2-1.4-.8-3.1-1.7-3.1-3.9s1.5-3.6,4.1-3.6,4,1.4,4,4.1Z"/>
    </g>
  </g>
</svg>